<?xml version="1.0" encoding="utf-8"?>
<!-- Generator: Adobe Illustrator 16.0.0, SVG Export Plug-In . SVG Version: 6.00 Build 0)  -->
<!DOCTYPE svg PUBLIC "-//W3C//DTD SVG 1.1//EN" "http://www.w3.org/Graphics/SVG/1.1/DTD/svg11.dtd">
<svg version="1.1" id="Layer_1" xmlns="http://www.w3.org/2000/svg" xmlns:xlink="http://www.w3.org/1999/xlink" x="0px" y="0px"
	 width="1284.129px" height="275.121px" viewBox="0 0 1284.129 275.121" enable-background="new 0 0 1284.129 275.121"
	 xml:space="preserve">
<g>
	<path fill="#400C31" d="M438.221,262.34c0.595,0.193,1.967-0.502,2.236-1.131c0.553-1.283,1.025-2.871,0.765-4.184
		c-0.681-3.428,0.341-6.293,1.932-9.205c0.702-1.281,0.903-2.861,1.192-4.336c0.259-1.326,0.327-2.693,0.482-4.043
		c0.254-0.002,0.508-0.008,0.759-0.014c0.396,0.689,0.823,1.359,1.179,2.068c3.532,7.01,8.092,13.143,14.578,17.756
		c1.811,1.285,3.283,3.045,5.371,5.025c-0.058,0,0.687-0.08,1.406,0.02c0.725,0.098,1.502,0.23,2.125,0.576
		c7.063,3.922,14.58,4.232,22.32,2.922c0.447-0.078,1.134-0.355,1.316-0.162c2.049,2.137,3.763,0.424,5.295-0.592
		c3.127-2.074,5.999-4.527,9.121-6.607c6.463-4.303,10.729-11.469,18.51-14.064c1.547-0.518,2.864-1.686,4.367-2.381
		c0.906-0.424,1.966-0.518,3.537-0.9c-0.255,2.514-0.791,4.498-0.566,6.393c0.29,2.439,1.328,4.781,1.788,7.211
		c0.495,2.604,0.885,5.256,0.966,7.895c0.092,3.131-0.787,6.414-0.137,9.365c0.963,0.105,1.925,0.209,2.886,0.316
		c1.101-2.438,0.376-4.938,1.013-7.318c0.169-0.631-0.047-1.898-0.429-2.059c-2.321-0.971-1.436-2.879-1.534-4.502
		c-0.107-1.746-0.201-3.494-0.305-5.24c-0.27-4.604-0.599-9.207-0.763-13.816c-0.026-0.756,0.487-1.729,1.062-2.271
		c2.741-2.586,5.695-4.945,8.371-7.596c3.737-3.707,5.174-4.012,9.836-1.406c0.805,0.451,1.583,0.959,2.375,1.436
		c1.416,0.848,2.194,1.889,2.254,3.742c0.109,3.387,0.572,6.771,1.055,10.131c0.102,0.721,0.912,1.332,1.396,1.994
		c0.318-0.154,0.635-0.313,0.953-0.469c0-2.109-0.24-4.252,0.051-6.32c0.564-4.002,0.242-8.299,5.119-10.543
		c4.352-2.002,6.243-2.141,9.673,1.168c2.32,2.236,4.403,4.852,7.067,6.564c2.406,1.551,3.186,3.277,3.006,5.889
		c-0.439,6.447-0.795,12.898-1.23,19.346c-0.033,0.488-0.41,0.957-0.641,1.43c-0.492,1.012-1.275,1.98-1.42,3.039
		c-0.248,1.77-0.18,3.602-0.049,5.391c0.053,0.711,0.586,1.416,1.002,2.059c0.045,0.072,0.105,0.139,0.166,0.207
		c0.859-0.072,1.717-0.135,2.576-0.182c-0.111-2.279,0.139-4.594,0.518-6.938c0.119-0.73,0.146-1.473,0.178-2.211
		c0.125-2.953,0.053-5.928,0.404-8.854c0.316-2.627,1.299-5.176,1.598-7.805c0.207-1.828-0.242-3.732-0.436-6.061
		c1.5,0.367,2.561,0.387,3.35,0.859c5.57,3.324,11.576,5.727,16.346,10.621c4.826,4.953,10.875,8.715,16.412,12.973
		c0.416,0.32,0.994,0.602,1.502,0.607c1.77,0.02,3.572-0.328,5.303-0.102c6.529,0.85,12.945,0.645,19.094-1.883
		c3.75-1.537,7.455-2.861,10.563-6.012c3.922-3.975,8.609-7.189,11.545-12.123c1.719-2.887,3.459-5.762,5.189-8.641
		c0.727,1.465,0.709,2.863,0.891,4.234c0.158,1.219,0.412,2.461,0.857,3.602c0.623,1.602,1.832,3.055,2.131,4.691
		c0.52,2.871,0.406,5.855,0.857,8.746c0.113,0.721,1.365,1.768,2.1,1.773c1.35,0.014,2.564-0.84,1.996-2.543
		c-0.506-1.512-1.383-2.902-1.844-4.424c-0.813-2.695-1.984-5.455-1.945-8.172c0.023-1.83-0.199-3.287-0.891-4.891
		c-0.928-2.16-2.15-4.385-2.295-6.643c-0.15-2.404,0.854-4.873,1.275-7.324c1.43-8.326,1.441-16.588-1.713-24.564
		c-1.436-3.623-3.287-7.086-4.965-10.652c0.746-0.197,1.875-0.238,2.658-0.779c0.656-0.455,1.332-1.529,1.268-2.264
		c-0.227-2.551-0.979-5.057-1.164-7.607c-0.76-10.514-2.713-20.986-1.305-32.025h-19.807c0-4.219-0.189-8.01,0.053-11.773
		c0.252-3.816,0.398-7.521-2.172-11.094c4.637-1.336,8.914-2.455,13.117-3.811c5.502-1.775,11.303-2.855,16.076-6.447
		c0.664-0.503,1.223-1.143,1.832-1.721l-0.291-0.836c-1.584,0.084-3.186,0.064-4.754,0.275c-7.871,1.058-15.732,2.193-23.604,3.261
		c-2.77,0.376-4.723-1.005-5.637-3.661c-0.182-0.529-0.887-0.873-1.65-1.58c0.125,1.989,0.738,3.613,0.186,4.303
		c-2.855,3.555-7.168,4.811-10.732,6.58c-0.564-1.853-1.48-3.416-1.436-4.95c0.27-9.14,0.756-18.274,1.191-27.409
		c0.078-1.607,0.83-2.507,2.617-2.496c1.832,0.014,2.867-0.923,2.781-2.086c-2.457-1.502-4.424-2.707-6.393-3.91
		c0.092-0.352,0.182-0.702,0.271-1.055c1.168-0.361,2.318-0.854,3.514-1.063c5.729-0.999,11.496-1.788,17.191-2.927
		c2.686-0.537,5.377-1.436,7.805-2.679c1.15-0.588,2.279-2.36,2.301-3.615c0.014-0.878-1.725-2.074-2.912-2.64
		c-5.096-2.426-10.594-2.18-16.053-2.121c-3.938,0.041-7.873,0.008-11.768,0.008c-0.584-3.93-1.023-4.328-3.117-3.152
		c0.525,0.971,1.049,1.945,1.438,2.664c-10.389,2.262-20.488,4.461-30.559,6.652c0.127-0.313,0.42-0.949,0.648-1.609
		c1.223-3.563,2.65-7.074,3.604-10.707c1.998-7.645,2.594-15.48,2.436-23.365c-0.043-2.106,0.775-3.098,2.846-3.643
		c4.629-1.221,9.201-2.672,13.77-4.115c1.916-0.604,3.762-1.426,5.643-2.149c-0.063-0.356-0.123-0.714-0.184-1.071
		c-0.863-0.057-1.768-0.299-2.586-0.133c-2.078,0.42-4.119,1.013-6.172,1.551c-4.508,1.18-9.016,2.367-13.666,3.589
		c-0.92-3.202-1.615-5.966-2.545-8.649c-0.279-0.81-1.199-1.402-1.824-2.096c-0.316,0.84-0.844,1.67-0.902,2.528
		c-0.137,1.972-0.045,3.957-0.045,5.679c-3.652,0.865-6.953,2.588-10.506,0.792c-0.484-0.243-1.361,0.29-2.055,0.465
		c0.344,0.582,0.559,1.339,1.061,1.714c1.557,1.166,3.221,2.186,4.578,3.088c-0.875,1.023-1.5,1.76-2.127,2.498
		c0.916,0.367,1.838,0.719,2.744,1.104c0.85,0.364,2.277,0.61,2.424,1.177c0.982,3.803,2.164,7.533-0.682,11.34
		c-2.627,3.504-4.932,7.348-6.762,11.323c-1.953,4.252-2.969,8.931-4.799,13.251c-1.932,4.568-4.49,8.865-6.496,13.406
		c-1.686,3.813-4.582,6.142-8.18,8.232c-0.387-0.998-0.677-1.664-0.906-2.354c-2.297-6.903-4.438-13.866-6.936-20.696
		c-1.305-3.564-2.472-7.572-6.992-8.574c-1.414-0.313-2.936-0.114-4.381-0.33c-4.871-0.731-8.98,1.42-10.249,6.207
		c-1.294,4.868-1.968,9.909-2.737,14.9c-0.545,3.531-0.793,7.109-1.186,10.764c-4.335-1.667-5.309-2.642-7.055-6.078
		c-0.996-1.965-2.242-3.807-3.439-5.664c-2.861-4.439-6.578-8.238-7.891-13.761c-1.016-4.278-3.48-8.212-5.313-12.298
		c-1.227-2.742-3.059-5.376-3.553-8.241c-0.555-3.214,0.093-6.634,0.228-10.29c1.546,0.83,2.556,1.373,4.183,2.246
		c-0.174-1.445-0.027-2.416-0.422-3.051c-0.863-1.383-2.082-2.368-0.617-4.286c0.877-1.146-0.67-3.341,1.396-4.505
		c0.535-0.303,0.573-1.488,0.841-2.269c-1.008,0.024-2.504-0.366-2.941,0.146c-1.893,2.225-3.881,1.084-5.993,0.773
		c0.366-1.736,0.838-3.254,0.93-4.793c0.036-0.587-0.802-1.223-1.246-1.837c-0.515,0.372-1.276,0.634-1.5,1.136
		c-0.77,1.719-1.35,3.521-2.093,5.536c-4.014-3.476-7.886-6.827-11.756-10.179h-0.555c-1.865,1.398-0.367,2.396,0.514,3.264
		c2.891,2.848,5.906,5.57,8.791,8.426c0.541,0.535,1.098,1.553,0.959,2.199c-2.028,9.385,0.162,18.582,1.3,27.788
		c0.449,3.64,2.083,7.134,3.092,10.415c-8.743-1.73-17.617-3.484-26.632-5.268c0.576-1.023,1.137-2.02,1.728-3.066
		c-2.526-0.564-2.649-0.438-3.477,3.346c-4.048,0-8.103,0.014-12.16-0.004c-5.182-0.022-10.403-0.202-15.236,2.078
		c-1.28,0.6-3.321,2.012-3.187,2.685c0.298,1.466,1.49,3.255,2.814,3.901c2.525,1.239,5.354,2.014,8.14,2.547
		c5.706,1.099,11.473,1.871,17.194,2.887c0.881,0.156,1.656,0.893,2.48,1.36c-0.514,0.822-0.84,1.962-1.581,2.396
		c-1.292,0.759-2.84,1.081-5.068,1.863c1.347,0.956,2.351,2.259,3.409,2.304c2.443,0.104,2.979,1.414,3.031,3.375
		c0.271,10.488,2.332,20.99-0.174,31.75c-2.803-1.375-5.539-2.501-8.048-4.001c-3.1-1.858-3.614-3.492-2.873-6.68
		c-0.751,0.257-1.489,0.692-1.694,1.305c-0.795,2.376-2.869,3.902-5.418,3.562c-7.872-1.053-15.731-2.201-23.604-3.254
		c-1.641-0.219-3.313-0.191-4.969-0.277c-0.084,0.396-0.168,0.789-0.252,1.186c9.026,7.033,20.634,7.751,31.004,11.816
		c-4.676,7.25-0.797,15.109-2.036,22.863h-19.454c0,3.449,0.134,6.525-0.028,9.582c-0.327,6.184-0.776,12.363-1.255,18.541
		c-0.264,3.395-0.326,6.875-1.169,10.139c-0.638,2.473-0.126,3.445,2.181,3.877c0.604,0.111,1.186,0.352,1.847,0.553
		c-1.003,1.521-2.128,2.887-2.886,4.43c-4.843,9.82-6.592,20.004-4.154,30.9c0.783,3.498,2.631,7.244,0.232,10.971
		c-1.701,2.643-2.699,5.361-2.313,8.758c0.24,2.123-0.973,4.443-1.681,6.627c-0.565,1.74-1.544,3.367-1.937,5.133
		C436.559,260.832,437.52,262.111,438.221,262.34z M641.824,134.486c2.141-0.396,3.656-0.674,5.316-0.98
		c-0.164-0.775-0.33-1.547-0.543-2.531c3.15-0.9,6.043-1.727,8.938-2.551c0.264,0.172,0.527,0.344,0.793,0.52
		c-0.445,1.08-0.824,2.197-1.354,3.238c-0.775,1.537-1.324,2.836,0.857,3.809c0.629,0.277,1.227,1.479,1.201,2.236
		c-0.146,3.947-0.5,7.891-0.807,12.211c-3.82,0.467-7.613,1.148-11.418,1.244c-0.969,0.025-2.781-1.754-2.848-2.791
		C641.654,144.139,641.824,139.352,641.824,134.486z M620.58,152.574c-2.008,0.047-4.02,0.012-6.643,0.012
		c0.184-2.086,0.32-3.813,0.49-5.541c0.141-1.377,0.553-2.994-1.516-3.146c-2.119-0.156-2.297-1.377-2.1-3.018
		c0.162-1.352,0.287-2.709,0.432-4.1h2.65c0.145,0.178,0.326,0.303,0.363,0.461c1.098,4.656,1.096,4.656,6.115,4.078
		c3.748-0.432,4.313,0.072,4.338,3.9c0.006,1.016,0.006,2.031,0,3.047C624.701,150.539,622.832,152.525,620.58,152.574z
		 M637.342,149.639c-0.023,1.566-0.719,2.502-2.576,2.438c-6.664-0.227-5.494,0.459-5.438-5.408c0.021-2.164-0.598-4.49,2.068-6.051
		c1.402-0.818,0.146-4.215-2.006-6.561c1.963-0.275,3.963-0.891,5.867-0.672c0.809,0.094,1.963,1.906,2.02,2.984
		C637.504,140.783,637.406,145.215,637.342,149.639z M607.035,78.596c10.242,3.199,20.781,3.607,31.596,3.486
		c2.719,13.841-0.217,27.643,0.324,41.396c0.035,0.939-0.996,2.426-1.891,2.798c-3.041,1.269-6.242,2.151-9.314,3.159
		c-0.461-0.379-1.023-0.84-1.586-1.299c-0.318,0.568-0.703,1.111-0.945,1.713c-0.643,1.602-2.096,2.836-1.188,5.092
		c0.316,0.793-1.479,2.854-2.729,3.756c-2.297,1.658-3.736,0.74-4.537-1.994c-1.08-3.699,1.303-6.654,1.861-9.986
		c0.074-0.456,1.355-0.713,2.082-1.063c0.059-0.3,0.117-0.598,0.178-0.898c-1.346-0.266-2.682-0.695-4.037-0.754
		c-1.484-0.064-2.254-0.504-2.756-2.035c-0.732-2.238-2.076-3.946-4.73-4.534c-1.293-0.286-2.213-2.052-3.525-2.503
		c-3.6-1.231-7.316-2.119-10.842-3.104C598.885,101.098,602.941,89.9,607.035,78.596z M587.795,162.338
		c8.23-0.527,16.557-0.35,24.277-6.24c-0.211,3.004-0.359,5.127-0.521,7.418c0.965,0.146,1.73,0.262,2.564,0.391v5.178
		c-8.938,0.205-17.584,1.438-25.242,7.955c0.285-3.973-1.102-7.385,1.621-10.643c-1.189-0.232-2.195-0.43-3.311-0.648
		C587.389,164.602,587.578,163.543,587.795,162.338z M566.516,217.863c2.883,1.344,5.588,2.514,8.178,3.902
		c0.457,0.244,0.668,1.455,0.522,2.115c-0.08,0.365-1.198,0.824-1.737,0.711c-2.237-0.467-4.432-1.135-6.963-1.816V217.863z
		 M566.619,225.676c1.482,0.49,2.715,0.895,3.943,1.297c0.018,0.223,0.035,0.445,0.053,0.666c-1.289,0.498-2.578,0.992-4.236,1.629
		C566.469,227.924,566.529,227.029,566.619,225.676z M555.782,227.525c1.952-0.83,3.114-1.322,4.669-1.98
		c0.111,1.449,0.184,2.398,0.277,3.602C559.151,228.629,557.889,228.217,555.782,227.525z M551.871,222.385
		c0.533-3.453,0.977-6.924,1.477-10.533c8.822,3.396,7.587,2.205,7.141,10.996c-2.082,0.553-4.203,1.115-6.327,1.674
		C552.274,225.018,551.57,224.33,551.871,222.385z M497.42,141.781c0.261,0.086,0.465,0.76,0.471,1.164
		c0.041,2.846,0.021,5.693,0.021,9.088c-2.059,0-4.112,0.283-6.018-0.127c-0.871-0.188-2.018-1.709-2.066-2.678
		c-0.215-4.236-0.202-8.496-0.014-12.738c0.113-2.59,1.482-3.477,3.98-3.072c1.182,0.189,2.357,0.416,3.525,0.672
		c0.226,0.053,0.404,0.328,0.938,0.785c-1.141,0.557-1.938,0.941-2.813,1.367C495.566,138.281,494.271,140.758,497.42,141.781z
		 M510.35,152.561c-2.208-0.092-4.76,0.922-6.381-1.59c-0.462-0.717-0.908-1.441-1.35-2.17c-0.043-0.068-0.008-0.182-0.01-0.275
		c-0.141-7.416-0.134-7.494,7.068-6.934c1.962,0.154,2.742-0.463,2.834-2.307c0.036-0.73,0.156-1.459,0.264-2.428
		c1.151-0.072,2.052-0.131,2.953-0.186c1.868,4.641,1.194,6.418-3.3,7.826c0.258,1.066,0.378,2.223,0.817,3.242
		C514.328,150.266,513.002,152.672,510.35,152.561z M546.443,179.568c0.096,1.645,0.177,3.049,0.293,5.063
		c-2.156-2.035-3.805-3.592-5.79-5.467C543.055,179.318,544.676,179.438,546.443,179.568z M539.455,162.27
		c0.267,1.166,0.521,2.283,0.814,3.561c-1.171,0.139-2.148,0.254-2.574,0.307c0.241,3.453,0.471,6.75,0.758,10.879
		c-7.783-6.363-16.188-7.822-25.166-7.859v-5.217c0.617-0.113,1.31-0.244,2.271-0.426c-0.144-2.191-0.288-4.389-0.493-7.473
		C522.798,161.887,531.077,161.943,539.455,162.27z M489.15,81.713c4.156,0,8.865,0.251,13.534-0.072
		c4.495-0.311,8.977-1.078,13.405-1.926c1.762-0.338,2.514,0.018,3.053,1.65c1.727,5.225,3.384,10.483,5.381,15.605
		c1.535,3.932,3.352,7.791,5.445,11.449c0.824,1.439,2.744,2.25,4.777,3.814c-2.387,0.191-4.006,0.426-5.629,0.43
		c-3.984,0.008-7.08,1.941-10.354,3.973c-2.751,1.709-5.126,3.346-6.255,6.494c-0.156,0.436-1.16,0.67-1.813,0.809
		c-1.385,0.297-2.799,0.468-4.498,0.739c3.556,3.927,5.52,7.788,4.217,12.739c-0.466,1.77-1.53,2.166-3.086,1.916
		c-2.922-0.469-4.826-4.211-3.57-6.51c-0.922-1.652-1.775-3.178-2.78-4.975c-0.493,0.77-0.88,1.373-1.124,1.75
		c-3.297-1.094-6.547-2.055-9.689-3.295c-0.788-0.313-1.725-1.494-1.754-2.305c-0.406-12.193-0.732-24.389-0.901-36.588
		C487.486,85.771,488.428,84.117,489.15,81.713z M471.975,131.932c-0.545-0.979-0.824-2.104-1.479-3.855
		c3.896,1.111,6.884,1.965,10.078,2.877c-0.23,0.877-0.428,1.623-0.666,2.523c1.73,0.293,3.326,0.564,5.531,0.938
		c0,4.969,0.17,9.936-0.152,14.871c-0.061,0.902-2.126,2.404-3.235,2.377c-3.662-0.082-7.311-0.74-11.093-1.195
		c-0.354-4.465-0.723-8.512-0.941-12.568c-0.032-0.613,0.5-1.652,1.008-1.836C473.64,135.119,472.928,133.652,471.975,131.932z"/>
</g>
</svg>
